# xmcd CD database file
#
# Track frame offsets:
#	150
#	13339
#	29033
#	42783
#	60977
#
# Disc length: 1001 seconds
#
# Revision: 0
# Processed by: cddbd v1.5.1PL0 Copyright (c) Steve Scherf et al.
# Submitted via: CDex 1.51
#
DISCID=3b03e705
DTITLE=Torpex Blues Band - Demo
DYEAR=2005
DGENRE=Blues
TTITLE0=Too Many Guitars
TTITLE1=The Thrill Is Gone
TTITLE2=Route 66
TTITLE3=Same As You
TTITLE4=The Sky Is Crying
EXTD=YEAR: 2005
EXTT0=
EXTT1=
EXTT2=
EXTT3=
EXTT4=
PLAYORDER=
